<?xml version="1.0" standalone="no"?>
<!DOCTYPE svg PUBLIC "-//W3C//DTD SVG 20010904//EN"
 "http://www.w3.org/TR/2001/REC-SVG-20010904/DTD/svg10.dtd">
<svg version="1.0" xmlns="http://www.w3.org/2000/svg"
 width="606.000000pt" height="219.000000pt" viewBox="0 0 606.000000 219.000000"
 preserveAspectRatio="xMidYMid meet">

<g transform="translate(0.000000,219.000000) scale(0.100000,-0.100000)"
fill="#000000" stroke="none">
<path d="M327 1222 c-142 -532 -273 -1024 -292 -1095 l-34 -127 2727 0 2727 0
289 1083 c159 595 291 1088 293 1095 4 9 -545 12 -2724 12 l-2728 0 -258 -968z
m1218 401 c-8 -27 -35 -113 -59 -193 -25 -79 -44 -145 -43 -146 1 -1 125 86
275 192 l273 194 170 -2 170 -3 -260 -190 c-144 -104 -261 -193 -261 -197 0
-3 67 -121 149 -260 81 -140 153 -264 160 -276 l12 -22 -163 0 -163 0 -114
213 c-63 116 -115 214 -117 216 -1 1 -52 -31 -112 -73 l-109 -77 -44 -139 -43
-140 -157 0 -157 0 23 78 c14 42 80 256 147 475 l123 397 157 0 157 0 -14 -47z
m1388 25 c3 -13 31 -140 62 -283 31 -143 60 -268 64 -278 5 -15 18 -3 70 65
35 45 145 181 245 301 l181 217 172 0 c95 0 173 -3 173 -7 0 -5 -65 -217 -144
-473 l-143 -465 -146 -3 c-81 -1 -147 1 -147 6 0 28 165 505 204 586 25 55 45
100 44 102 -2 1 -38 -44 -81 -100 -43 -55 -158 -194 -255 -309 l-177 -207 -75
2 -75 3 -47 180 c-26 99 -57 232 -69 295 -22 119 -39 161 -39 99 0 -77 -35
-234 -99 -439 l-66 -215 -147 -3 -146 -3 49 158 c27 87 92 301 146 476 l97
317 172 0 c170 0 172 0 177 -22z m2002 -150 c15 -95 48 -308 74 -473 l47 -300
-160 -3 c-121 -2 -161 1 -168 10 -4 7 -8 34 -8 59 0 25 -3 74 -6 108 l-7 61
-216 0 -216 -1 -85 -119 -85 -119 -174 -1 c-165 0 -173 1 -159 18 8 9 183 223
387 475 l372 457 188 0 189 0 27 -172z"/>
<path d="M4590 1401 c-39 -61 -101 -150 -136 -198 l-64 -88 151 -3 c84 -1 153
-1 155 0 3 4 -25 391 -30 395 -2 2 -36 -46 -76 -106z"/>
</g>
</svg>
